<svg width="43" height="16" viewBox="0 0 43 16" fill="none" xmlns="http://www.w3.org/2000/svg">
<path d="M0.500404 0.5H9.5104L9.51035 2.613H3.11333H2.61335L2.61333 3.11299L2.61325 6.07199L2.61324 6.572H3.11325H8.75124L8.75118 8.685H3.11317H2.61318L2.61317 9.18499L2.61308 12.287L2.61307 12.787H3.11308H9.51007L9.51001 14.9H0.500014L0.500404 0.5ZM0.754034 14.146L0.75402 14.646H1.25403H8.95403H9.45402L9.45403 14.146L9.45405 13.464L9.45407 12.964H8.95405H2.42507L2.42519 8.464H8.1842H8.68419L8.6842 7.96401L8.68422 7.28201L8.68423 6.782H8.18422H2.42523L2.42535 2.359H8.95437H9.45435L9.45437 1.85901L9.45438 1.18801L9.4544 0.688H8.95438H1.25439H0.754399L0.754385 1.18799L0.754034 14.146ZM14.2359 14.234L14.2359 14.734H14.7359H15.4179H15.9179L15.9179 14.234L15.9182 2.447H17.5967L21.4877 14.3454L21.6004 14.69H21.9629H25.7029H26.2029L26.2029 14.19L26.2033 1.18801L26.2033 0.688H25.7033H25.0323H24.5323L24.5323 1.18799L24.5319 12.986H22.8536L18.9625 1.07672L18.8499 0.732H18.4873H14.7363H14.2363L14.2363 1.23199L14.2359 14.234ZM24.2893 0.5H26.4023L26.4019 14.9H21.2967L17.5785 2.97517L17.469 2.624H17.1012H16.6502H16.1502L16.1502 3.12399L16.1499 14.9H14.0369L14.0373 0.5H19.1421L22.8385 12.3914L22.9478 12.743H23.316H23.789H24.2889L24.289 12.243L24.2893 0.5ZM41.8885 4.538H39.7864L39.7865 3.78401L39.7865 3.57691L39.64 3.43045L38.969 2.75945L38.8226 2.613H38.6155H34.6225H34.4082L34.2604 2.76817L33.6004 3.46117L33.4625 3.60599L33.4625 3.80599L33.4623 11.627L33.4623 11.8341L33.6087 11.9805L34.2687 12.6405L34.4151 12.787H34.6222H38.6152H38.8223L38.9688 12.6406L39.6398 11.9696L39.7863 11.8231L39.7863 11.616L39.7863 10.098L39.7863 9.598H39.2863H36.7393L36.7394 7.496H41.8884L41.8882 12.9269L39.9151 14.9H33.3333L31.3602 12.9269L31.3605 2.47312L33.3337 0.5H39.9155L41.8885 2.4731L41.8885 4.538ZM33.4106 14.4995L33.5571 14.646H33.7642H39.5062H39.7133L39.8597 14.4996L41.5318 12.8276L41.6782 12.6811L41.6782 12.474L41.6783 8.23901L41.6784 7.739H41.1783H37.4604H36.9604L36.9604 8.23899L36.9603 8.90999L36.9603 9.41H37.4603H39.9963L39.9962 11.9784L38.9936 12.964H34.2658L33.2632 11.9784L33.2635 3.35436L34.2674 2.359H38.9927L39.9965 3.35435L39.9965 3.89399L39.9965 4.394H40.4965H41.1785H41.6785L41.6785 3.89402L41.6785 2.84902L41.6785 2.64094L41.5309 2.49429L39.8589 0.833287L39.7127 0.688H39.5065H33.7645H33.5584L33.4122 0.833277L31.7401 2.49428L31.5925 2.64092L31.5925 2.84899L31.5922 12.474L31.5922 12.6811L31.7387 12.8275L33.4106 14.4995Z" fill="white" stroke="black"/>
</svg>
